HIERARCHY
ROOT Root
{
  OFFSET 0.0 0.0 0.0
  CHANNELS 6 Xposition Yposition Zposition Zrotation Yrotation Xrotation
  JOINT Hips
  {
    OFFSET 0.0 100.0 0.0
    CHANNELS 6 Xposition Yposition Zposition Zrotation Yrotation Xrotation
    JOINT Spine1
    {
      OFFSET 5.003913 -0.037094 -0.013727
      CHANNELS 3 Zrotation Yrotation Xrotation
      JOINT Spine2
      {
        OFFSET 7.125363 -1e-06 0.0
        CHANNELS 3 Zrotation Yrotation Xrotation
        JOINT Chest
        {
          OFFSET 7.594027 1e-06 0.0
          CHANNELS 3 Zrotation Yrotation Xrotation
          JOINT Neck1
          {
            OFFSET 26.313086 -0.460272 -0.181672
            CHANNELS 3 Zrotation Yrotation Xrotation
            JOINT Neck2
            {
              OFFSET 8.04591 0.0 0.0
              CHANNELS 3 Zrotation Yrotation Xrotation
              JOINT Head
              {
                OFFSET 6.432777 0.0 0.0
                CHANNELS 3 Zrotation Yrotation Xrotation
                JOINT HeadEnd
                {
                  OFFSET 16.169769 0.06451 0.00362
                  CHANNELS 3 Zrotation Yrotation Xrotation
                }
                JOINT Jaw
                {
                  OFFSET 0.108738 3.12938 0.002639
                  CHANNELS 3 Zrotation Yrotation Xrotation
                }
                JOINT LeftEye
                {
                  OFFSET 4.451729 8.166359 3.206392
                  CHANNELS 3 Zrotation Yrotation Xrotation
                }
                JOINT RightEye
                {
                  OFFSET 4.43689 8.135758 -3.222429
                  CHANNELS 3 Zrotation Yrotation Xrotation
                }
              }
            }
          }
          JOINT LeftShoulder
          {
            OFFSET 23.218927 5.195579 1.621656
            CHANNELS 3 Zrotation Yrotation Xrotation
            JOINT LeftArm
            {
              OFFSET 15.902122 2e-06 -2e-06
              CHANNELS 3 Zrotation Yrotation Xrotation
              JOINT LeftForeArm
              {
                OFFSET 28.739304 0.0 -1e-06
                CHANNELS 3 Zrotation Yrotation Xrotation
                JOINT LeftHand
                {
                  OFFSET 27.093979 -4e-06 0.0
                  CHANNELS 3 Zrotation Yrotation Xrotation
                  JOINT LeftHandThumb1
                  {
                    OFFSET 2.276787 3.380274 0.83384
                    CHANNELS 3 Zrotation Yrotation Xrotation
                    JOINT LeftHandThumb2
                    {
                      OFFSET 4.705307 -2e-06 -1e-06
                      CHANNELS 3 Zrotation Yrotation Xrotation
                      JOINT LeftHandThumb3
                      {
                        OFFSET 2.798515 0.0 3e-06
                        CHANNELS 3 Zrotation Yrotation Xrotation
                        JOINT LeftHandThumbEnd
                        {
                          OFFSET 3.180786 5e-06 -4e-06
                          CHANNELS 3 Zrotation Yrotation Xrotation
                        }
                      }
                    }
                  }
                  JOINT LeftHandIndex1
                  {
                    OFFSET 3.24778 2.352677 0.137192
                    CHANNELS 3 Zrotation Yrotation Xrotation
                    JOINT LeftHandIndex2
                    {
                      OFFSET 6.367104 1e-06 0.0
                      CHANNELS 3 Zrotation Yrotation Xrotation
                      JOINT LeftHandIndex3
                      {
                        OFFSET 3.662361 0.0 0.0
                        CHANNELS 3 Zrotation Yrotation Xrotation
                        JOINT LeftHandIndex4
                        {
                          OFFSET 2.329239 4e-06 -4e-06
                          CHANNELS 3 Zrotation Yrotation Xrotation
                          JOINT LeftHandIndexEnd
                          {
                            OFFSET 2.767822 0.0 0.0
                            CHANNELS 3 Zrotation Yrotation Xrotation
                          }
                        }
                      }
                    }
                  }
                  JOINT LeftHandMiddle1
                  {
                    OFFSET 3.163612 0.945023 -0.406112
                    CHANNELS 3 Zrotation Yrotation Xrotation
                    JOINT LeftHandMiddle2
                    {
                      OFFSET 6.276794 3e-06 0.0
                      CHANNELS 3 Zrotation Yrotation Xrotation
                      JOINT LeftHandMiddle3
                      {
                        OFFSET 4.356522 -1e-06 4e-06
                        CHANNELS 3 Zrotation Yrotation Xrotation
                        JOINT LeftHandMiddle4
                        {
                          OFFSET 2.996872 0.0 8e-06
                          CHANNELS 3 Zrotation Yrotation Xrotation
                          JOINT LeftHandMiddleEnd
                          {
                            OFFSET 2.323257 3e-06 -4e-06
                            CHANNELS 3 Zrotation Yrotation Xrotation
                          }
                        }
                      }
                    }
                  }
                  JOINT LeftHandRing1
                  {
                    OFFSET 2.882607 -0.309162 0.107445
                    CHANNELS 3 Zrotation Yrotation Xrotation
                    JOINT LeftHandRing2
                    {
                      OFFSET 6.033195 0.0 4e-06
                      CHANNELS 3 Zrotation Yrotation Xrotation
                      JOINT LeftHandRing3
                      {
                        OFFSET 4.350578 3e-06 0.0
                        CHANNELS 3 Zrotation Yrotation Xrotation
                        JOINT LeftHandRing4
                        {
                          OFFSET 2.651321 1e-06 -7e-06
                          CHANNELS 3 Zrotation Yrotation Xrotation
                          JOINT LeftHandRingEnd
                          {
                            OFFSET 1.937668 1e-06 -4e-06
                            CHANNELS 3 Zrotation Yrotation Xrotation
                          }
                        }
                      }
                    }
                  }
                  JOINT LeftHandPinky1
                  {
                    OFFSET 2.865311 -1.525436 0.575687
                    CHANNELS 3 Zrotation Yrotation Xrotation
                    JOINT LeftHandPinky2
                    {
                      OFFSET 5.549362 1e-06 -8e-06
                      CHANNELS 3 Zrotation Yrotation Xrotation
                      JOINT LeftHandPinky3
                      {
                        OFFSET 3.070969 0.0 -4e-06
                        CHANNELS 3 Zrotation Yrotation Xrotation
                        JOINT LeftHandPinky4
                        {
                          OFFSET 1.549675 1e-06 0.0
                          CHANNELS 3 Zrotation Yrotation Xrotation
                          JOINT LeftHandPinkyEnd
                          {
                            OFFSET 1.952118 0.0 0.0
                            CHANNELS 3 Zrotation Yrotation Xrotation
                          }
                        }
                      }
                    }
                  }
                }
              }
            }
          }
          JOINT RightShoulder
          {
            OFFSET 23.161718 5.296122 -1.380114
            CHANNELS 3 Zrotation Yrotation Xrotation
            JOINT RightArm
            {
              OFFSET -16.027195 -2e-06 1.1e-05
              CHANNELS 3 Zrotation Yrotation Xrotation
              JOINT RightForeArm
              {
                OFFSET -28.736641 4e-06 2e-06
                CHANNELS 3 Zrotation Yrotation Xrotation
                JOINT RightHand
                {
                  OFFSET -27.133617 6e-06 0.0
                  CHANNELS 3 Zrotation Yrotation Xrotation
                  JOINT RightHandThumb1
                  {
                    OFFSET -2.274328 -3.351035 -0.83067
                    CHANNELS 3 Zrotation Yrotation Xrotation
                    JOINT RightHandThumb2
                    {
                      OFFSET -4.703592 -3e-06 2e-06
                      CHANNELS 3 Zrotation Yrotation Xrotation
                      JOINT RightHandThumb3
                      {
                        OFFSET -2.794937 -4e-06 -3e-06
                        CHANNELS 3 Zrotation Yrotation Xrotation
                        JOINT RightHandThumbEnd
                        {
                          OFFSET -3.183853 4e-06 1e-06
                          CHANNELS 3 Zrotation Yrotation Xrotation
                        }
                      }
                    }
                  }
                  JOINT RightHandIndex1
                  {
                    OFFSET -3.253498 -2.33755 -0.127667
                    CHANNELS 3 Zrotation Yrotation Xrotation
                    JOINT RightHandIndex2
                    {
                      OFFSET -6.344433 0.0 0.0
                      CHANNELS 3 Zrotation Yrotation Xrotation
                      JOINT RightHandIndex3
                      {
                        OFFSET -3.654869 0.0 -8e-06
                        CHANNELS 3 Zrotation Yrotation Xrotation
                        JOINT RightHandIndex4
                        {
                          OFFSET -2.327587 -1e-06 0.0
                          CHANNELS 3 Zrotation Yrotation Xrotation
                          JOINT RightHandIndexEnd
                          {
                            OFFSET -2.770004 3e-06 8e-06
                            CHANNELS 3 Zrotation Yrotation Xrotation
                          }
                        }
                      }
                    }
                  }
                  JOINT RightHandMiddle1
                  {
                    OFFSET -3.168224 -0.944764 0.411762
                    CHANNELS 3 Zrotation Yrotation Xrotation
                    JOINT RightHandMiddle2
                    {
                      OFFSET -6.266689 -1e-06 -4e-06
                      CHANNELS 3 Zrotation Yrotation Xrotation
                      JOINT RightHandMiddle3
                      {
                        OFFSET -4.348904 0.0 0.0
                        CHANNELS 3 Zrotation Yrotation Xrotation
                        JOINT RightHandMiddle4
                        {
                          OFFSET -3.000237 2e-06 -4e-06
                          CHANNELS 3 Zrotation Yrotation Xrotation
                          JOINT RightHandMiddleEnd
                          {
                            OFFSET -2.32148 -4e-06 -4e-06
                            CHANNELS 3 Zrotation Yrotation Xrotation
                          }
                        }
                      }
                    }
                  }
                  JOINT RightHandRing1
                  {
                    OFFSET -2.885654 0.293261 -0.119232
                    CHANNELS 3 Zrotation Yrotation Xrotation
                    JOINT RightHandRing2
                    {
                      OFFSET -6.032833 -1e-06 -4e-06
                      CHANNELS 3 Zrotation Yrotation Xrotation
                      JOINT RightHandRing3
                      {
                        OFFSET -4.33881 0.0 -4e-06
                        CHANNELS 3 Zrotation Yrotation Xrotation
                        JOINT RightHandRing4
                        {
                          OFFSET -2.654903 -4e-06 -4e-06
                          CHANNELS 3 Zrotation Yrotation Xrotation
                          JOINT RightHandRingEnd
                          {
                            OFFSET -1.935123 0.0 4e-06
                            CHANNELS 3 Zrotation Yrotation Xrotation
                          }
                        }
                      }
                    }
                  }
                  JOINT RightHandPinky1
                  {
                    OFFSET -2.866241 1.503903 -0.60527
                    CHANNELS 3 Zrotation Yrotation Xrotation
                    JOINT RightHandPinky2
                    {
                      OFFSET -5.553177 -1e-06 0.0
                      CHANNELS 3 Zrotation Yrotation Xrotation
                      JOINT RightHandPinky3
                      {
                        OFFSET -3.062664 -1e-06 -4e-06
                        CHANNELS 3 Zrotation Yrotation Xrotation
                        JOINT RightHandPinky4
                        {
                          OFFSET -1.546532 2e-06 4e-06
                          CHANNELS 3 Zrotation Yrotation Xrotation
                          JOINT RightHandPinkyEnd
                          {
                            OFFSET -1.952339 0.0 -4e-06
                            CHANNELS 3 Zrotation Yrotation Xrotation
                          }
                        }
                      }
                    }
                  }
                }
              }
            }
          }
        }
      }
    }
    JOINT LeftLeg
    {
      OFFSET -8.443107 2.567604 10.043214
      CHANNELS 3 Zrotation Yrotation Xrotation
      JOINT LeftShin
      {
        OFFSET 43.229202 1e-06 -1e-06
        CHANNELS 3 Zrotation Yrotation Xrotation
        JOINT LeftFoot
        {
          OFFSET 42.298607 1e-06 1e-06
          CHANNELS 3 Zrotation Yrotation Xrotation
          JOINT LeftToeBase
          {
            OFFSET 14.165863 1e-06 0.0
            CHANNELS 3 Zrotation Yrotation Xrotation
            JOINT LeftToeEnd
            {
              OFFSET 6.714096 -0.234461 0.0
              CHANNELS 3 Zrotation Yrotation Xrotation
            }
          }
        }
      }
    }
    JOINT RightLeg
    {
      OFFSET -8.303924 2.592729 -10.047277
      CHANNELS 3 Zrotation Yrotation Xrotation
      JOINT RightShin
      {
        OFFSET -43.369686 0.0 0.0
        CHANNELS 3 Zrotation Yrotation Xrotation
        JOINT RightFoot
        {
          OFFSET -42.260784 4e-06 3e-06
          CHANNELS 3 Zrotation Yrotation Xrotation
          JOINT RightToeBase
          {
            OFFSET -14.222237 -2e-06 -2e-06
            CHANNELS 3 Zrotation Yrotation Xrotation
            JOINT RightToeEnd
            {
              OFFSET -6.660072 0.232574 -1e-06
              CHANNELS 3 Zrotation Yrotation Xrotation
            }
          }
        }
      }
    }
  }
}
MOTION
Frames: 4
Frame Time: 0.03333333333333333
0.0 0.0 0.0 0.0 -0.0 0.0 -0.23658 60.341461 -1.525797 91.130112 -32.147118 90.275337 19.903913 -1.277452 -0.339197 0.313118 -1.007157 0.547922 24.09944 -0.978592 -0.00163 -13.536865 0.350177 3.040049 -2.458652 -0.297594 -1.818262 -17.259043 1.404955 -3.566082 7e-06 0.0 0.0 -0.160193 0.009563 -0.030151 -0.078817 0.148199 -0.08871 -0.079221 -0.136557 0.037174 -18.369673 -87.663765 23.300049 63.932404 6.214351 -33.931381 68.082207 1.190315 0.307999 -15.063212 8.949623 11.839085 17.636511 -26.32268 52.411076 -19.466612 -14.395645 29.410358 -2e-05 -8.774813 8e-06 15.875897 -18.686155 6.660203 -0.609769 -1.795645 -3.889316 -4.807054 -11.046731 -2.937838 5.2e-05 -20.975897 7e-06 -5.019911 -25.033426 -4.031851 7e-06 -0.0 0.0 -10.634491 -5.686921 -3.565572 10.573279 -17.922859 -3.113898 2.7e-05 -13.821136 1.9e-05 -0.501741 -31.181364 -4.026943 -11.562576 -58.930935 7.323626 -13.98266 -7.150135 -2.875025 13.772711 -8.401463 -3.218251 0.347781 -34.211346 0.771695 -0.963019 -17.733309 2.621063 0.0 -1e-06 -0.0 -17.346329 -20.095066 -4.20177 21.757511 -1.638404 3.866385 1e-05 -6.338791 9e-06 -1.697543 -22.591644 -6.193971 0.0 -4e-06 -0.0 -88.21534 -77.243187 -86.980148 65.909103 18.815855 -23.129307 58.319477 -1.468939 0.074118 -14.136853 20.339756 9.779497 22.181942 -20.375887 49.933025 -16.70166 -16.743528 28.476357 -2.7e-05 -12.690523 2.5e-05 16.735722 -17.770145 2.40799 -0.105914 -1.513834 -4.275858 -5.038996 -5.612806 -2.953525 2.2e-05 -11.020418 2.1e-05 -6.111221 -15.895146 -3.840407 2e-06 -0.0 0.0 -10.283304 -5.680219 -4.341803 11.028241 -11.302304 -2.372604 -1.384237 -14.238423 -6.320039 -0.62543 -26.923918 -3.827471 -5.287801 -49.805981 -3.008844 -13.708442 -7.363388 -3.720902 18.141058 -14.052619 -3.242645 7e-06 -18.787094 6.1e-05 -0.429718 -8.45598 2.555523 1e-06 -0.0 0.0 -15.923424 -20.094261 -5.473527 30.419054 -7.190789 1.735877 3e-06 -8.162863 2.7e-05 -1.861915 -22.861269 -6.167789 0.0 -3e-06 -1e-06 72.708572 -21.733936 4.312713 108.581749 -0.415415 0.889624 -102.660698 14.522275 -6.18931 -5.959761 1.350505 2.062068 -0.999998 0.0 0.0 -109.518982 -20.010307 0.05155 110.260521 0.094215 0.070977 -100.936539 6.586017 -0.71906 -6.437269 0.665984 1.642156 -0.999999 -1e-06 0.0 
0.0 0.0 0.0 0.0 -0.0 0.0 -0.232902 60.161446 -1.469677 91.145401 -32.20401 90.470184 19.973776 -1.166993 -0.335543 0.274748 -0.995117 0.559111 24.068899 -0.865085 0.075048 -13.588285 0.190042 3.02669 -2.444797 -0.239343 -1.990315 -17.16188 1.406445 -3.651588 6e-06 -0.0 0.0 -0.167184 0.000432 -0.029293 -0.050859 0.136418 -0.086 -0.046225 -0.142142 0.033193 -16.792219 -87.764191 21.747343 63.883793 6.477917 -33.985142 68.296654 1.110288 0.352422 -15.226594 8.729191 11.419196 17.636709 -26.323149 52.411972 -19.466843 -14.395715 29.41083 1.2e-05 -8.77492 -1e-06 15.816825 -18.701395 6.681095 -0.609787 -1.795667 -3.88937 -4.807144 -11.04694 -2.937891 -3.1e-05 -20.976318 1.2e-05 -5.020067 -25.034031 -4.031971 6e-06 -1e-06 1e-06 -10.634617 -5.687035 -3.565634 10.573345 -17.923143 -3.113931 -2e-05 -13.821408 1.1e-05 -0.50181 -31.182133 -4.027107 -11.557805 -59.098957 7.380142 -13.982821 -7.150277 -2.875084 13.772836 -8.401566 -3.218273 0.347663 -34.212105 0.771712 -0.963095 -17.733704 2.621085 0.0 0.0 -0.0 -17.346571 -20.095432 -4.201833 21.757748 -1.638365 3.866479 -9e-06 -6.338913 7e-06 -1.697626 -22.592175 -6.194137 -2e-06 -4e-06 -1e-06 -87.745964 -77.321289 -87.420868 65.537895 19.137522 -23.273495 58.795677 -1.559181 -0.06647 -14.005388 20.208265 10.21903 22.182199 -20.376154 49.9338 -16.701904 -16.743603 28.476807 4e-06 -12.690661 7e-06 16.634415 -17.799932 2.424702 -0.105922 -1.513863 -4.275916 -5.039066 -5.612919 -2.953583 -3e-06 -11.020633 2e-06 -6.111331 -15.895539 -3.840522 0.0 0.0 0.0 -10.283415 -5.680332 -4.341879 11.028333 -11.302483 -2.372647 -1.384267 -14.23872 -6.320194 -0.625442 -26.92453 -3.827662 -5.347934 -49.812813 -2.895965 -13.708576 -7.363535 -3.720978 18.141212 -14.052838 -3.242695 -9e-06 -18.787466 4e-06 -0.42973 -8.456152 2.555542 -2e-06 -0.0 -0.0 -15.923606 -20.094637 -5.473633 30.419317 -7.190847 1.735932 -1e-05 -8.163011 5e-06 -1.861903 -22.861776 -6.168019 -3e-06 -3e-06 -2e-06 72.53688 -21.559647 4.355861 108.833794 -0.360108 0.860474 -102.970779 14.609146 -6.182487 -6.040603 1.35584 2.063689 -0.999996 -0.0 -0.0 -109.817719 -20.135284 0.254398 110.512146 0.065821 0.03692 -101.094612 6.569328 -0.83134 -6.406785 0.642663 1.639408 -1.000005 0.0 0.0 
0.0 0.0 0.0 0.0 -0.0 0.0 -0.186664 60.020149 -1.456269 91.172348 -32.177086 90.623444 20.030289 -1.075456 -0.332877 0.270626 -0.943349 0.561066 24.059042 -0.818132 0.111257 -13.580545 0.109118 3.073146 -2.448788 -0.248476 -2.141678 -17.062233 1.339071 -3.717756 5e-06 -0.0 -0.0 -0.168752 -0.01781 -0.013304 -0.048893 0.116649 -0.073544 -0.037723 -0.158493 0.049841 -15.630622 -87.794243 20.607214 63.74371 6.684164 -33.927814 68.590782 1.126393 0.377656 -15.417917 8.530392 10.915356 17.636475 -26.322504 52.410873 -19.466635 -14.395551 29.410295 -7e-06 -8.774793 7e-06 15.827604 -18.748589 6.663597 -0.60977 -1.795651 -3.889311 -4.807061 -11.046772 -2.937843 2.2e-05 -20.975975 -2.9e-05 -5.019917 -25.033562 -4.031894 3e-06 -2e-06 -0.0 -10.634481 -5.686954 -3.565564 10.573237 -17.922892 -3.113917 1.6e-05 -13.821177 -2e-05 -0.501707 -31.181498 -4.027057 -11.601693 -59.249466 7.435816 -13.982649 -7.150173 -2.875017 13.772678 -8.401469 -3.21825 0.347784 -34.211487 0.771583 -0.962993 -17.733385 2.620993 -2e-06 1e-06 -0.0 -17.346331 -20.095137 -4.201757 21.757471 -1.638366 3.866388 6e-06 -6.338808 -9e-06 -1.697543 -22.591753 -6.194031 1e-06 -5e-06 -1e-06 -87.63961 -77.243835 -87.555969 65.00827 19.335197 -23.200432 59.333443 -1.449427 -0.118333 -14.111649 19.945198 10.823521 22.181816 -20.375656 49.932835 -16.701662 -16.74341 28.476274 -7e-06 -12.690462 2.8e-05 16.601456 -17.817741 2.481717 -0.105913 -1.513845 -4.275847 -5.038985 -5.612826 -2.953519 4e-06 -11.020431 -4e-06 -6.111215 -15.895205 -3.840414 0.0 -0.0 1e-06 -10.283275 -5.680249 -4.34179 11.028181 -11.302299 -2.372624 -1.384245 -14.238462 -6.320055 -0.625416 -26.923952 -3.827567 -5.411349 -49.893585 -2.787614 -13.708397 -7.36342 -3.720888 18.140966 -14.052608 -3.242673 -2e-06 -18.787107 -1.2e-05 -0.42971 -8.455979 2.555471 0.0 0.0 0.0 -15.923391 -20.094326 -5.473512 30.418924 -7.190731 1.735862 -7e-06 -8.16285 -5e-06 -1.861873 -22.861271 -6.167881 -3e-06 -3e-06 -1e-06 72.432961 -21.400805 4.399405 109.075081 -0.307045 0.832617 -103.127228 14.61007 -6.189623 -6.096682 1.349996 2.066091 -1.000001 1e-06 -0.0 -110.026955 -20.35417 0.398571 110.7556 0.049726 0.014303 -101.19104 6.69399 -0.92825 -6.350553 0.636912 1.638203 -1.0 -0.0 0.0 
0.0 0.0 0.0 0.0 -0.0 0.0 -0.14845 59.926285 -1.451097 91.215553 -32.135208 90.701897 20.087328 -1.01934 -0.334299 0.281282 -0.889064 0.563512 24.036102 -0.800169 0.129792 -13.566264 0.081832 3.100585 -2.449495 -0.295304 -2.228643 -16.967173 1.281971 -3.72812 9e-06 -0.0 -0.0 -0.170231 -0.035751 0.003532 -0.064091 0.100339 -0.063705 -0.048688 -0.177845 0.071531 -16.377184 -87.8321 21.389563 63.651524 6.912886 -33.903145 68.835091 1.110879 0.358423 -15.571608 8.399393 10.820131 17.636742 -26.322962 52.411552 -19.466785 -14.395691 29.410618 6e-06 -8.774905 -7e-06 15.840469 -18.783785 6.645469 -0.609782 -1.795662 -3.889349 -4.80713 -11.046894 -2.937866 -1.2e-05 -20.976244 2.1e-05 -5.020054 -25.033918 -4.031923 6e-06 -0.0 1e-06 -10.634598 -5.687007 -3.565606 10.573343 -17.923088 -3.113911 -1e-05 -13.821359 1.5e-05 -0.501813 -31.181986 -4.027051 -11.663081 -59.380093 7.507007 -13.982795 -7.150246 -2.875058 13.772823 -8.401551 -3.218258 0.347699 -34.211964 0.771707 -0.963072 -17.733635 2.621082 -3e-06 -3e-06 -1e-06 -17.346529 -20.095341 -4.2018 21.757717 -1.638384 3.866466 -4e-06 -6.338892 8e-06 -1.697624 -22.592083 -6.194082 -3e-06 -4e-06 -2e-06 -87.800003 -77.152908 -87.418274 64.533195 19.496027 -23.09346 59.808395 -1.279152 -0.116361 -14.360287 19.723383 11.457939 22.182203 -20.375967 49.933475 -16.701855 -16.743557 28.476612 2e-06 -12.690645 -7e-06 16.599159 -17.855349 2.555504 -0.105923 -1.513858 -4.275891 -5.039057 -5.612895 -2.953569 0.0 -11.020584 0.0 -6.11133 -15.89546 -3.840505 -3e-06 0.0 0.0 -10.283397 -5.680309 -4.341855 11.028318 -11.302444 -2.372633 -1.38428 -14.238657 -6.320154 -0.625441 -26.924414 -3.827636 -5.510561 -50.029087 -2.681331 -13.708559 -7.363507 -3.720957 18.141195 -14.052787 -3.242672 4e-06 -18.787382 -1e-06 -0.429718 -8.45611 2.555529 3e-06 0.0 -1e-06 -15.92358 -20.094555 -5.473609 30.419287 -7.190849 1.735949 -1e-06 -8.162966 1e-06 -1.861901 -22.861647 -6.167994 -2e-06 -2e-06 -0.0 72.386101 -21.252066 4.439909 109.287308 -0.268253 0.796338 -103.197121 14.596105 -6.213262 -6.140777 1.348876 2.067356 -1.000003 -0.0 -0.0 -110.143539 -20.562017 0.521385 110.939445 0.043207 -0.005705 -101.292305 6.836414 -0.973184 -6.332074 0.64094 1.637004 -1.000003 0.0 0.0 
